<?xml version="1.0" encoding="utf-8"?>
<!-- Generator: Adobe Illustrator 26.3.0, SVG Export Plug-In . SVG Version: 6.00 Build 0)  -->
<svg version="1.1" id="Layer_1" xmlns="http://www.w3.org/2000/svg" xmlns:xlink="http://www.w3.org/1999/xlink" x="0px" y="0px"
	 viewBox="0 0 288 560" style="enable-background:new 0 0 288 560;" xml:space="preserve">
<style type="text/css">
	.st0{fill:#03EA96;}
	.st1{fill:#04A2F7;}
	.st2{fill:#02D2B7;}
	.st3{fill:#00C7C5;}
	.st4{fill:#01CCBE;}
	.st5{fill:#01C2CC;}
	.st6{fill:#02E3A0;}
	.st7{fill:#02A9EE;}
	.st8{fill:#03DCA9;}
	.st9{fill:#01AFE6;}
	.st10{fill:#04B6DD;}
	.st11{fill:#04D7B1;}
	.st12{fill:#07BFD3;}
	.st13{fill:#05C7C6;}
	.st14{fill:#03CFBA;}
	.st15{fill:#03D8AF;}
	.st16{fill:#0DE0A7;}
	.st17{fill:#03B5DD;}
	.st18{fill:#02BDD3;}
	.st19{fill:#03CABF;}
	.st20{fill:#08C3CC;}
</style>
<g>
	<g>
		<path class="st0" d="M107.31,281.1c2-3.43,4.01-6.86,6.01-10.29c0,10.31,0,20.62,0,30.92c-2-3.43-4.01-6.86-6.01-10.29
			C107.31,287.99,107.31,284.54,107.31,281.1z"/>
		<path class="st1" d="M155.31,291.44c-1.21,2.29-2.42,4.58-3.63,6.87c-0.29-3.59-0.83-7.18-0.81-10.77
			c0.03-4.44,0.52-8.88,0.81-13.32c1.21,2.54,2.42,5.08,3.63,7.61C155.31,285.04,155.31,288.24,155.31,291.44z"/>
		<path class="st2" d="M126.06,309.9c-0.75-0.49-1.5-0.97-2.26-1.46c-0.31-0.09-0.62-0.18-0.93-0.27l-0.23,0.07
			c0,0-0.21-0.11-0.21-0.12c0.2-5.84,0.4-11.68,0.6-17.52c1.26-0.73,2.52-1.46,3.78-2.19c0,7.16,0,14.32,0,21.48
			C126.56,309.9,126.31,309.9,126.06,309.9z"/>
		<path class="st3" d="M132.81,309.9c-1,0-2,0-3,0c0-7.36,0-14.72,0-22.09c1-0.04,2-0.07,3-0.11
			C132.81,295.1,132.81,302.5,132.81,309.9z"/>
		<path class="st4" d="M129.81,287.81c0,7.36,0,14.72,0,22.09c-1,0-2,0-3,0c0-7.16,0-14.32,0-21.48
			C127.81,288.22,128.81,288.01,129.81,287.81z"/>
		<path class="st5" d="M132.81,309.9c0-7.4,0-14.8,0-22.2c1,0.24,2,0.48,3,0.72c0.01,6.94,0.02,13.89,0.03,20.83
			c-0.03,0.22-0.04,0.43-0.03,0.65C134.81,309.9,133.81,309.9,132.81,309.9z"/>
		<path class="st6" d="M116.16,304.47c-0.95-0.91-1.89-1.83-2.84-2.74c0-10.31,0-20.62,0-30.92c1.22-1.07,2.45-2.14,3.67-3.21
			c0.27,5.21,0.5,10.42,0.83,15.62c0.16,2.52,0.5,5.03,0.75,7.54c-0.92,2.37-1.95,4.7-2.68,7.12c-0.16,0.53,0.74,1.37,1.15,2.07
			C116.75,301.46,116.46,302.96,116.16,304.47z"/>
		<path class="st7" d="M151.68,274.22c-0.29,4.44-0.78,8.88-0.81,13.32c-0.02,3.59,0.52,7.18,0.81,10.77
			c-2.02,2.21-4.04,4.42-6.06,6.63c-0.27-1.57-0.54-3.14-0.82-4.71c1.67-0.62,2.69-1.46,1.75-3.46c-0.56-1.19-0.76-2.54-1.12-3.81
			c0.54-1.25,1.52-2.48,1.55-3.74c0.15-6.87,0.06-13.75,0.06-20.63C148.59,270.46,150.13,272.34,151.68,274.22z"/>
		<path class="st8" d="M118.58,290.76c-0.26-2.51-0.6-5.02-0.76-7.54c-0.33-5.2-0.56-10.41-0.83-15.62
			c1.03-0.66,2.06-1.33,3.09-1.99c0.24,1.75,0.33,3.54,0.77,5.24c0.4,1.54,1.19,2.98,1.81,4.46c-1.06,3.82-0.12,7.17,2.54,9.91
			C122.88,287.15,120.73,288.95,118.58,290.76z"/>
		<path class="st9" d="M147.05,268.58c0,6.88,0.09,13.76-0.06,20.63c-0.03,1.26-1.01,2.49-1.55,3.74c-0.95-1.27-1.91-2.53-2.86-3.8
			c0.24-2.54,0.63-5.08,0.7-7.63c0.13-5.15,0.09-10.31,0.11-15.46c0.74,0.51,1.49,1.02,2.23,1.54c0.47,0.32,0.93,0.65,1.4,0.97
			L147.05,268.58z"/>
		<path class="st10" d="M143.39,266.06c-0.03,5.15,0.02,10.31-0.11,15.46c-0.07,2.55-0.46,5.09-0.7,7.63
			c-1.77-1.28-3.54-2.57-5.31-3.86c3.66-3.84,3.99-7.9,1.52-12.26c0.01-2.98,0.02-5.97,0.03-8.95
			C140.34,264.74,141.87,265.4,143.39,266.06z"/>
		<path class="st11" d="M122.66,275.3c-0.62-1.48-1.41-2.92-1.81-4.46c-0.44-1.7-0.53-3.49-0.77-5.24c1.41-0.58,2.81-1.17,4.22-1.75
			c0.61,2.31,1.22,4.62,1.83,6.93C124.97,272.29,123.82,273.8,122.66,275.3z"/>
		<path class="st12" d="M138.82,264.08c-0.01,2.98-0.02,5.97-0.03,8.95c-1.55-1.08-3.1-2.16-4.64-3.25
			c0.06-2.27,0.11-4.54,0.17-6.81C135.81,263.34,137.32,263.71,138.82,264.08z"/>
		<path class="st13" d="M134.31,262.97c-0.06,2.27-0.11,4.54-0.17,6.81c-1.69-0.14-3.39-0.28-5.08-0.43
			c-0.05-2.16-0.1-4.32-0.15-6.48C130.71,262.91,132.51,262.94,134.31,262.97z"/>
		<path class="st14" d="M128.91,262.88c0.05,2.16,0.1,4.32,0.15,6.48c-0.98,0.47-1.96,0.95-2.94,1.42
			c-0.61-2.31-1.22-4.62-1.83-6.93c0,0,0.07,0.04,0.07,0.04c0.56-0.15,1.12-0.29,1.67-0.44C127,263.26,127.95,263.07,128.91,262.88z
			"/>
		<path class="st11" d="M126.04,263.45c-0.56,0.15-1.11,0.29-1.67,0.44C124.93,263.74,125.49,263.6,126.04,263.45z"/>
		<path class="st7" d="M147.02,268.56c-0.47-0.32-0.93-0.65-1.4-0.97C146.09,267.92,146.55,268.24,147.02,268.56z"/>
		<path class="st15" d="M123.03,290.61c-0.2,5.84-0.4,11.68-0.6,17.52c-1.08-0.55-2.15-1.11-3.23-1.66
			c-0.18-2.55-0.36-5.1-0.54-7.65C120.13,296.08,121.58,293.34,123.03,290.61z"/>
		<path class="st16" d="M118.68,298.81c0.18,2.55,0.36,5.1,0.54,7.65c-1.02-0.67-2.04-1.33-3.05-2c0.3-1.51,0.6-3.01,0.89-4.52
			C117.59,299.57,118.13,299.19,118.68,298.81z"/>
		<path class="st15" d="M122.88,308.18c0.31,0.09,0.62,0.18,0.93,0.27C123.5,308.35,123.19,308.26,122.88,308.18z"/>
		<path class="st17" d="M144.81,300.23c0.27,1.57,0.54,3.14,0.82,4.71c-1.94,1.07-3.88,2.13-5.82,3.2
			c-0.07-5.84-0.14-11.69-0.22-17.53C141.33,293.82,143.07,297.02,144.81,300.23z"/>
		<path class="st18" d="M139.59,290.61c0.07,5.84,0.14,11.69,0.22,17.53c0,0-0.06,0.02-0.06,0.01c-0.31,0.09-0.62,0.19-0.93,0.29
			c-0.99,0.27-1.98,0.54-2.98,0.8c-0.01-6.94-0.02-13.89-0.03-20.83C137.07,289.15,138.33,289.88,139.59,290.61z"/>
		<path class="st17" d="M138.82,308.44c0.31-0.1,0.62-0.19,0.93-0.29C139.44,308.25,139.13,308.35,138.82,308.44z"/>
		<path class="st19" d="M132.08,284.28c-2.94,0.5-5.43-0.61-6.2-3.25c-0.57-1.96-0.34-4.65,0.65-6.41c1.31-2.33,3.98-3.07,6.77-1.93
			c-0.41,1.06-1.12,2.11-1.19,3.19C131.95,278.67,132.08,281.48,132.08,284.28z"/>
		<path class="st20" d="M132.08,284.28c-0.01-2.8-0.13-5.61,0.04-8.4c0.06-1.08,0.77-2.13,1.19-3.19c3.29,0.98,4.43,3.37,4.08,6.48
			C137.05,282.19,135.3,284.03,132.08,284.28z"/>
	</g>
</g>
</svg>
